<?xml version="1.0" standalone="no"?>
<!DOCTYPE svg PUBLIC "-//W3C//DTD SVG 20010904//EN"
 "http://www.w3.org/TR/2001/REC-SVG-20010904/DTD/svg10.dtd">
<svg version="1.0" xmlns="http://www.w3.org/2000/svg"
 width="300.000000pt" height="295.000000pt" viewBox="0 0 300.000000 295.000000"
 preserveAspectRatio="xMidYMid meet">
<metadata>
Created by potrace 1.10, written by Peter Selinger 2001-2011
</metadata>
<g transform="translate(0.000000,295.000000) scale(0.100000,-0.100000)"
fill="#000000" stroke="none">
<path d="M361 2492 c-46 -27 -87 -55 -91 -62 -7 -11 -4 -1103 4 -1445 2 -103
31 -424 39 -430 1 -2 29 -20 62 -41 33 -20 153 -99 267 -175 113 -75 226 -144
250 -154 44 -16 53 -15 609 54 310 39 692 86 849 106 157 19 308 39 335 43
l50 7 54 110 54 110 -29 55 c-28 52 -228 356 -346 525 -119 170 -116 161 -124
400 -4 116 -9 257 -10 315 -15 620 -13 604 -66 593 -15 -3 -26 -8 -24 -12 2
-3 9 -208 15 -456 6 -247 13 -490 15 -538 3 -62 1 -89 -7 -92 -7 -2 -84 -6
-173 -9 -160 -6 -161 -6 -172 17 -11 22 -11 22 -11 1 -1 -25 -11 -26 -481 -44
-146 -6 -346 -15 -445 -20 -99 -5 -246 -12 -327 -16 l-146 -6 -6 43 c-23 180
-60 1114 -45 1141 11 21 38 24 44 6 2 -7 8 -80 14 -163 l10 -150 -5 154 -4
154 368 -6 c537 -10 997 -19 999 -21 13 -10 27 -345 27 -648 1 -208 4 -378 9
-378 18 0 4 747 -19 968 l-6 62 111 -2 c61 -2 111 0 111 3 0 8 -119 17 -235
18 -49 0 -153 3 -230 6 -143 6 -248 9 -860 20 l-350 6 -84 -49z m73 -19 c2
-10 5 -49 5 -88 1 -123 30 -711 47 -964 7 -92 7 -93 -14 -82 -11 6 -24 11 -29
11 -4 -1 4 -7 19 -15 22 -12 27 -22 26 -54 0 -23 11 -63 27 -98 16 -32 44 -92
63 -133 19 -41 58 -126 88 -188 30 -62 54 -117 54 -122 0 -6 4 -10 9 -10 5 0
15 -16 21 -34 6 -19 25 -63 42 -98 18 -35 32 -65 33 -68 23 -74 95 -165 143
-177 23 -6 242 8 342 22 171 24 312 40 555 65 110 12 272 30 360 40 88 11 185
23 215 26 30 3 107 11 170 19 130 14 150 15 150 4 0 -23 -35 -91 -51 -99 -10
-6 -73 -17 -141 -25 -68 -8 -195 -24 -283 -35 -88 -11 -180 -22 -205 -25 -75
-9 -124 -15 -150 -20 -14 -2 -45 -6 -70 -9 -174 -20 -559 -67 -581 -71 -9 -2
-40 -6 -70 -10 -30 -3 -65 -8 -79 -10 -14 -2 -59 -7 -100 -11 -41 -3 -78 -8
-82 -10 -4 -3 -15 -1 -25 4 -10 5 -36 18 -58 28 -21 10 -88 53 -147 94 -60 41
-131 89 -158 105 -27 17 -87 55 -132 86 -82 54 -83 56 -90 105 -22 162 -30
290 -33 544 -2 157 -7 499 -10 761 l-6 477 63 41 c71 47 75 48 82 24z m1857 1
c9 -11 14 -59 16 -157 2 -78 6 -248 9 -377 3 -129 8 -301 12 -382 7 -141 6
-147 -13 -154 -20 -6 -20 -7 0 -11 11 -2 25 -12 30 -23 6 -10 25 -45 44 -77
31 -53 70 -111 263 -393 88 -128 168 -269 168 -297 0 -35 5 -34 -530 -93 -41
-5 -339 -38 -661 -74 -322 -36 -601 -66 -619 -66 -72 0 -95 28 -192 229 -238
492 -311 649 -315 682 l-5 36 193 6 c107 4 284 11 394 16 236 12 580 27 940
41 142 6 261 13 263 15 5 5 -14 763 -24 968 -6 127 -2 146 27 111z"/>
<path d="M2028 1333 c-67 -3 -88 -7 -88 -18 0 -8 5 -17 10 -20 6 -3 10 -1 10
6 0 7 10 9 29 6 18 -4 31 -2 33 5 3 8 10 8 24 0 12 -6 26 -7 34 -2 8 5 22 4
32 -1 21 -11 38 -4 38 17 0 8 -8 13 -17 12 -10 -1 -57 -4 -105 -5z"/>
<path d="M2251 1208 c6 -13 23 -33 37 -44 16 -13 27 -33 27 -50 1 -20 8 -30
21 -33 22 -4 44 -20 44 -31 0 -15 -85 -17 -113 -3 -29 14 -32 37 -6 39 8 1 20
2 27 3 6 0 12 10 12 21 0 15 -7 20 -24 20 -15 0 -33 11 -46 27 -14 18 -24 23
-31 16 -7 -7 -5 -14 6 -23 15 -12 21 -51 9 -63 -8 -8 -44 15 -44 28 -1 11 -49
49 -56 43 -2 -2 2 -18 8 -36 15 -38 9 -45 -27 -36 l-28 7 24 13 24 13 -24 1
c-14 0 -35 10 -48 22 -14 13 -23 17 -23 9 0 -11 -3 -11 -17 0 -17 13 -17 13 0
-7 9 -11 17 -33 17 -47 0 -25 3 -27 45 -27 48 0 65 -16 65 -64 0 -19 5 -26 18
-26 29 0 65 -44 57 -69 -5 -18 -2 -21 23 -21 41 0 66 -31 59 -74 -4 -24 -1
-39 9 -47 8 -6 14 -28 14 -49 0 -38 0 -38 -33 -30 -18 4 -42 4 -52 0 -11 -4
-60 -10 -110 -14 -49 -4 -139 -13 -200 -21 -60 -7 -148 -16 -195 -20 -88 -6
-109 -9 -172 -21 -34 -6 -38 -4 -38 14 0 11 8 23 17 26 14 6 12 9 -11 21 -42
22 -46 19 -46 -28 l0 -42 -47 -1 c-27 0 -58 -4 -70 -8 -20 -6 -23 -4 -23 17 0
14 6 27 13 30 8 3 6 11 -9 28 -12 13 -19 30 -16 38 4 12 -11 13 -91 7 -53 -3
-103 -9 -112 -12 -11 -5 -15 1 -15 25 0 17 -3 31 -8 31 -4 0 -7 -13 -7 -30 0
-37 -13 -40 -34 -6 -13 21 -13 30 -3 46 6 11 12 23 12 27 0 5 -4 2 -8 -5 -13
-20 -41 -3 -57 35 -23 54 -6 71 74 75 76 4 101 -9 101 -53 0 -27 -2 -28 -45
-27 -45 1 -64 -6 -52 -18 3 -3 53 -1 111 5 133 15 146 10 146 -58 l0 -48 53 5
c28 2 54 6 56 8 11 10 -13 18 -44 16 -26 -2 -35 1 -35 13 0 10 11 15 33 16 27
2 28 2 7 6 -26 5 -60 30 -60 45 0 13 84 10 98 -4 7 -7 12 -32 12 -55 l0 -44
48 6 c26 3 151 15 277 25 442 38 495 44 495 52 0 4 -13 8 -30 8 -40 0 -42 30
-2 31 26 0 25 1 -8 12 -24 8 -36 19 -38 35 -2 14 -10 22 -22 22 -10 0 -21 4
-24 9 -4 5 3 7 14 4 11 -3 20 0 20 6 0 6 -10 11 -22 11 -12 0 -32 10 -45 22
-21 20 -21 22 -5 34 11 9 13 13 4 14 -7 0 -10 5 -7 10 4 6 -5 10 -21 10 -15 0
-41 13 -61 30 -18 17 -41 30 -49 30 -8 0 -12 5 -9 10 4 6 10 8 15 5 5 -3 12
-1 15 5 4 6 3 10 -2 9 -22 -4 -43 2 -57 17 -22 21 -36 9 -36 -32 0 -33 1 -34
39 -34 46 0 67 -20 63 -61 -3 -26 -1 -29 26 -29 35 0 62 -27 62 -63 0 -24 4
-27 33 -27 37 0 62 -31 55 -66 -4 -24 -78 -34 -78 -10 0 8 5 16 12 18 17 6
-51 68 -73 68 -30 0 -22 20 9 21 26 1 25 1 -6 9 -33 8 -65 38 -56 52 3 5 -4 8
-15 8 -12 0 -21 6 -21 14 0 8 -20 31 -45 52 -27 22 -44 43 -40 51 2 8 1 12 -4
8 -5 -3 -22 6 -39 20 -35 29 -52 19 -52 -32 0 -29 -3 -33 -26 -33 -21 0 -25 4
-21 19 3 12 -4 28 -19 42 -23 21 -31 17 -25 -15 1 -5 -1 -21 -4 -37 -6 -25 -9
-27 -31 -17 -27 12 -32 28 -9 28 8 0 15 5 15 10 0 6 -11 10 -24 10 -13 0 -26
7 -30 15 -11 30 -32 5 -28 -35 4 -39 5 -40 42 -40 43 0 70 -24 70 -63 0 -22 5
-27 23 -27 34 0 59 -32 51 -64 -3 -14 -10 -23 -16 -20 -5 3 -15 0 -23 -6 -12
-10 -18 -10 -30 0 -19 16 -13 23 23 28 38 5 41 12 5 12 -32 0 -69 32 -58 49 4
7 -6 12 -27 12 -30 2 -31 2 -5 6 33 5 36 23 3 23 -14 0 -38 13 -54 30 -17 17
-38 30 -46 30 -24 0 -19 19 7 30 21 8 21 9 -5 9 -16 1 -33 9 -40 21 -20 32
-28 23 -21 -25 5 -39 3 -45 -13 -46 -46 -3 -62 5 -47 23 8 10 3 20 -18 41
l-28 27 -12 -39 c-16 -52 -7 -73 26 -65 34 8 71 -30 67 -69 -3 -25 0 -27 30
-27 43 0 58 -15 58 -60 0 -24 6 -39 20 -48 14 -9 20 -23 20 -50 l0 -37 -45 3
c-30 3 -45 9 -45 18 0 8 8 15 18 16 16 1 25 3 47 8 6 2 -8 6 -30 9 -27 4 -41
12 -43 24 -3 12 3 17 22 17 14 0 26 5 26 10 0 6 -5 10 -11 10 -6 0 -9 7 -5 15
4 11 -2 15 -23 15 -30 0 -67 32 -57 49 4 5 -6 11 -21 13 -36 4 -41 26 -6 31
24 3 23 4 -8 6 -36 1 -76 31 -66 48 3 5 -6 9 -20 8 -14 0 -28 6 -30 13 -3 7 5
12 21 12 13 0 28 5 31 10 4 6 -6 10 -21 10 -15 0 -38 10 -51 22 -13 12 -23 17
-24 12 0 -5 -2 -28 -5 -51 -5 -42 -4 -43 25 -43 19 0 35 -7 43 -19 6 -11 19
-17 27 -14 10 3 12 2 5 -4 -7 -4 -13 -17 -15 -28 -3 -13 -12 -20 -28 -20 -29
0 -40 21 -14 28 10 3 5 5 -13 6 -17 0 -38 8 -45 17 -7 9 -24 20 -37 25 -30 11
-26 44 5 44 12 0 25 4 29 8 4 4 -7 7 -24 7 -21 0 -36 7 -46 22 -20 28 -34 15
-40 -32 -3 -32 -6 -35 -32 -32 -43 5 -54 22 -15 22 18 0 30 4 26 10 -3 5 -12
7 -21 3 -8 -3 -26 5 -40 18 -21 20 -27 21 -34 9 -5 -8 -10 -28 -10 -45 0 -24
-5 -30 -22 -32 -13 0 -32 -3 -43 -5 -12 -2 -21 3 -23 15 -3 14 3 17 32 17 19
0 38 5 42 11 4 8 -3 9 -24 5 -24 -6 -33 -3 -49 18 -19 23 -20 23 -31 5 -17
-27 -15 -53 6 -80 18 -24 87 -139 176 -295 25 -45 46 -88 46 -97 0 -9 11 -24
25 -33 26 -17 30 -17 210 1 22 3 112 11 200 20 587 57 1070 106 1091 111 13 3
24 12 24 18 0 14 -168 268 -271 411 -52 71 -71 91 -93 93 -26 3 -27 2 -15 -20z
m-39 -145 c10 -9 18 -30 18 -49 l0 -34 43 6 c38 6 44 4 56 -19 8 -14 11 -35 8
-46 -5 -20 -1 -21 67 -21 78 0 96 -9 96 -49 0 -24 -4 -26 -44 -29 -25 -1 -47
2 -51 8 -6 10 18 14 63 10 12 -1 22 4 22 10 0 8 -22 9 -77 5 -72 -7 -80 -5
-98 15 -16 18 -17 23 -5 31 10 6 5 7 -17 3 -28 -6 -34 -3 -42 18 -5 14 -17 28
-26 32 -11 4 -14 12 -10 25 3 11 1 22 -5 26 -6 3 -8 10 -6 14 3 4 -5 8 -16 8
-24 2 -60 32 -52 44 9 15 56 10 76 -8z m-330 -25 c6 -13 11 -35 9 -50 -2 -26
0 -28 32 -28 39 0 64 -33 52 -69 -6 -18 -2 -21 27 -21 47 -1 64 -18 58 -58 -3
-18 -8 -33 -12 -32 -5 0 -21 0 -38 0 -30 0 -43 23 -17 33 8 3 5 10 -10 22 -13
9 -23 23 -23 31 0 8 -10 14 -25 14 -14 0 -25 5 -25 10 0 6 9 10 20 10 11 0 20
5 20 11 0 5 -5 7 -10 4 -15 -9 -60 22 -60 40 0 10 -10 15 -31 15 -27 0 -30 2
-19 15 10 13 8 19 -14 36 -32 25 -26 39 19 39 25 0 38 -6 47 -22z m-101 -9 c6
-12 8 -34 5 -50 -5 -27 -3 -29 26 -29 38 0 58 -25 51 -62 -5 -26 -3 -28 30
-28 43 0 62 -26 52 -69 -5 -24 -10 -27 -33 -24 -49 8 -54 11 -43 31 7 14 5 21
-11 31 -11 7 -17 19 -14 26 4 11 -2 13 -25 8 -26 -5 -30 -3 -28 12 2 10 15 20
28 22 36 5 39 13 4 13 -20 0 -38 9 -56 30 -15 17 -32 30 -37 30 -24 0 -7 20
18 21 26 2 27 2 2 6 -26 5 -60 30 -60 45 0 4 18 8 40 8 30 0 42 -5 51 -21z
m-236 -19 c11 -12 16 -29 13 -45 -5 -23 -2 -25 28 -25 37 0 58 -25 52 -62 -2
-16 -12 -22 -40 -25 -38 -4 -52 10 -22 21 14 5 12 10 -10 27 -14 11 -26 27
-26 35 0 8 -9 14 -19 14 -11 0 -23 5 -26 10 -3 6 3 10 14 10 12 0 21 5 21 10
0 6 -13 10 -28 10 -27 0 -52 15 -52 32 0 17 77 8 95 -12z m-388 -49 c16 -47
18 -48 52 -44 29 4 41 0 59 -20 34 -36 26 -60 -20 -60 -21 0 -38 4 -38 9 1 5
12 8 25 6 14 -2 25 1 25 7 0 6 -9 11 -20 11 -12 0 -32 7 -45 16 -14 9 -25 12
-26 8 0 -5 -4 1 -10 14 -8 21 -15 23 -61 21 -60 -3 -93 -12 -115 -34 -14 -15
-38 -11 -28 4 2 5 -7 20 -21 34 -21 21 -23 29 -15 46 12 21 38 26 153 29 l67
2 18 -49z m1272 8 c15 -27 9 -65 -9 -54 -8 5 -7 11 1 21 9 11 6 14 -16 14 -28
0 -65 24 -65 42 0 5 17 8 37 6 28 -2 41 -10 52 -29z m-1037 -56 c18 -16 24
-50 10 -68 -4 -5 -24 -11 -44 -12 -28 -2 -38 2 -38 12 0 9 10 15 24 15 14 0
28 5 31 10 4 6 -6 10 -24 10 -27 0 -51 21 -51 44 0 14 75 5 92 -11z m98 -53
c0 -5 -9 -14 -20 -20 -11 -6 -20 -9 -20 -6 0 2 -3 11 -6 20 -5 12 0 16 20 16
14 0 26 -4 26 -10z m319 -34 c15 -16 20 -31 16 -47 -5 -20 -12 -24 -43 -23
-26 1 -38 6 -40 18 -3 12 5 16 30 17 26 1 28 3 9 6 -29 6 -71 32 -71 44 0 5
17 9 38 9 28 0 45 -7 61 -24z m-120 0 c7 -8 11 -29 9 -47 -3 -29 -6 -31 -45
-33 -35 -2 -43 1 -43 15 0 10 5 21 11 24 6 5 3 13 -10 22 -12 8 -21 18 -21 24
0 15 86 11 99 -5z m701 4 c0 -5 -3 -10 -7 -10 -5 0 -18 -3 -30 -6 -17 -5 -23
-2 -23 10 0 11 9 16 30 16 17 0 30 -4 30 -10z m158 -36 c15 -10 22 -25 22 -49
0 -33 -1 -33 -46 -33 -37 0 -45 3 -42 16 2 11 17 19 38 23 35 6 35 6 5 8 -40
1 -83 30 -64 42 22 14 62 10 87 -7z m-113 -14 c15 -14 20 -29 17 -49 -4 -27
-7 -29 -53 -29 -43 -1 -49 2 -49 20 0 17 4 20 30 15 16 -4 32 -2 35 3 4 6 -10
10 -32 10 -22 0 -44 5 -51 12 -24 24 -18 27 67 36 8 1 24 -7 36 -18z m-1143
-99 c8 -11 12 -35 10 -54 -4 -33 -7 -35 -49 -41 -25 -3 -66 -6 -91 -6 -44 0
-44 0 -38 30 5 30 0 35 -31 31 -16 -2 -17 25 -2 35 9 5 93 16 171 23 9 0 23
-8 30 -18z"/>
<path d="M943 946 c5 -14 106 -14 157 0 43 12 39 12 -57 11 -57 -1 -102 -6
-100 -11z"/>
<path d="M1166 630 c6 -6 26 -6 54 -1 l45 9 -54 1 c-36 1 -52 -2 -45 -9z"/>
<path d="M1010 855 c9 -16 21 -20 61 -18 26 1 56 7 66 13 14 8 3 10 -49 7 -41
-3 -71 0 -79 7 -8 8 -8 6 1 -9z"/>
<path d="M1215 763 c-27 -2 -54 -9 -60 -14 -7 -7 12 -9 55 -5 36 3 67 6 70 7
3 1 8 1 13 0 4 0 7 4 7 9 0 6 -8 9 -17 8 -10 -1 -40 -3 -68 -5z"/>
<path d="M2020 710 c-91 -9 -234 -23 -318 -30 -84 -7 -149 -16 -143 -19 5 -4
63 -1 128 5 65 7 213 20 328 29 210 17 326 34 220 33 -27 -1 -124 -8 -215 -18z"/>
<path d="M2130 2492 c0 -4 17 -6 38 -4 64 6 69 10 15 11 -29 0 -53 -3 -53 -7z"/>
<path d="M758 2421 c-53 -3 -98 -8 -100 -11 -2 -3 -10 -14 -18 -25 -13 -18
-13 -19 0 -8 36 28 121 35 435 35 224 0 374 -5 499 -16 175 -17 181 -18 207
-46 19 -19 30 -44 34 -77 4 -26 9 -59 11 -73 2 -14 9 -104 15 -201 11 -169 2
-433 -17 -482 -11 -30 -27 -19 -20 16 4 17 9 128 13 246 7 257 -9 432 -48 533
-9 22 -21 29 -63 38 -208 42 -1059 40 -1089 -3 -16 -23 14 -832 32 -866 18
-32 78 -35 471 -23 500 16 718 31 725 51 14 35 18 479 6 626 -14 171 -23 222
-44 242 -26 26 -268 44 -622 47 -181 2 -374 1 -427 -3z m742 -76 c189 -17 218
-23 229 -44 15 -29 30 -115 52 -302 20 -176 21 -298 3 -420 -8 -57 -31 -64
-229 -73 -60 -3 -153 -8 -205 -11 -52 -3 -216 -8 -365 -10 -329 -5 -314 -10
-320 111 -2 43 -7 133 -10 199 -4 66 -9 207 -11 313 -6 233 -4 239 78 245 151
10 636 6 778 -8z"/>
<path d="M1982 2298 l3 -33 108 -3 108 -3 -3 33 -3 33 -108 3 -108 3 3 -33z
m186 9 c6 0 12 -9 12 -19 0 -17 -8 -19 -90 -17 -89 2 -90 2 -90 27 l0 25 78
-7 c42 -4 83 -8 90 -9z"/>
<path d="M1990 2213 l0 -33 105 0 105 0 0 29 0 30 -105 3 -105 3 0 -32z m190
-3 c0 -20 -5 -21 -87 -18 -74 3 -88 6 -91 21 -3 15 6 17 87 17 85 0 91 -1 91
-20z"/>
<path d="M1990 2130 l0 -30 105 0 105 0 0 30 0 30 -105 0 -105 0 0 -30z m200
0 c0 -20 -5 -21 -92 -18 -79 3 -93 6 -96 21 -3 15 6 17 92 17 90 0 96 -1 96
-20z"/>
<path d="M534 2045 c0 -49 1 -71 3 -48 2 23 2 64 0 90 -2 26 -3 8 -3 -42z"/>
<path d="M1994 2074 c3 -9 6 -20 6 -25 0 -5 45 -9 100 -9 100 0 100 0 100 25
l0 25 -106 0 c-93 0 -105 -2 -100 -16z m166 -14 c10 -7 -8 -9 -60 -8 l-75 1
55 7 c30 4 57 7 60 8 3 1 12 -3 20 -8z"/>
<path d="M2000 2000 l0 -25 100 0 c100 0 100 0 100 25 l0 25 -100 0 c-100 0
-100 0 -100 -25z"/>
<path d="M2000 1930 l0 -30 100 0 100 0 0 30 0 30 -100 0 -100 0 0 -30z"/>
<path d="M543 1860 c0 -36 2 -50 4 -32 2 17 2 47 0 65 -2 17 -4 3 -4 -33z"/>
<path d="M2125 1810 c-4 -7 -3 -16 3 -22 14 -14 45 -2 40 15 -6 16 -34 21 -43
7z"/>
<path d="M2060 1704 c0 -24 2 -25 50 -22 43 3 50 6 50 24 0 19 -6 22 -50 23
-47 1 -50 -1 -50 -25z"/>
<path d="M551 1583 c0 -40 2 -73 7 -73 4 0 6 24 4 52 -5 89 -9 97 -11 21z"/>
<path d="M2180 1550 c0 -5 18 -10 40 -10 22 0 40 5 40 10 0 6 -18 10 -40 10
-22 0 -40 -4 -40 -10z"/>
<path d="M563 1440 c0 -36 2 -50 4 -32 2 17 2 47 0 65 -2 17 -4 3 -4 -33z"/>
</g>
</svg>
